{"glyphs":{"0":{"ha":1119,"x_min":0,"x_max":0,"o":"m 560 -14 b 57 493 288 -14 57 190 b 560 1000 57 796 288 1000 b 1063 493 831 1000 1063 796 b 560 -14 1063 190 831 -14 m 247 493 b 560 160 247 294 388 160 b 872 493 731 160 872 294 b 560 826 872 692 731 826 b 247 493 388 826 247 692 "},"1":{"ha":522,"x_min":0,"x_max":0,"o":"m 233 815 l 74 815 l 74 986 l 421 986 l 421 0 l 233 0 "},"2":{"ha":765,"x_min":0,"x_max":0,"o":"m 357 415 b 511 694 469 563 511 615 b 383 826 511 800 435 826 b 246 678 324 826 246 790 l 246 653 l 57 653 l 57 694 b 386 1000 57 858 167 1000 b 708 721 585 1000 708 879 b 546 393 708 592 628 499 l 371 165 l 708 165 l 708 0 l 43 0 l 357 415 "},"3":{"ha":803,"x_min":0,"x_max":0,"o":"m 389 -14 b 50 204 218 -14 94 81 l 188 288 b 382 150 226 194 301 150 b 563 329 479 150 563 214 b 279 490 563 467 436 547 l 454 824 l 104 824 l 104 986 l 722 986 l 518 618 b 753 317 639 597 753 485 b 389 -14 753 114 589 -14 "},"4":{"ha":831,"x_min":0,"x_max":0,"o":"m 140 274 b 128 272 136 274 132 274 l 128 136 b 140 135 131 135 136 135 b 183 204 176 135 183 161 b 140 274 183 249 176 274 l 140 274 m 351 190 l 296 190 l 296 138 l 361 138 l 361 104 l 256 104 l 256 306 l 361 306 l 361 271 l 296 271 l 296 224 l 351 224 m 138 101 b 88 104 126 101 106 101 l 88 303 b 139 308 106 306 125 308 b 224 204 201 308 224 274 b 138 101 224 133 200 101 l 138 101 m 451 306 l 478 194 l 504 306 l 560 306 b 568 104 563 257 565 169 l 528 104 b 524 249 528 151 526 201 l 496 135 l 458 135 l 431 249 l 429 249 b 426 104 428 201 426 151 l 388 104 b 397 306 389 169 393 257 l 397 306 m 669 101 b 596 204 614 101 596 133 b 669 308 596 275 614 308 b 744 204 725 308 744 275 b 669 101 744 133 725 101 l 669 101 m 669 274 b 636 204 642 274 636 250 b 669 135 636 160 642 135 b 704 204 699 135 704 160 b 669 274 704 250 699 274 m 656 689 b 742 601 728 689 742 631 b 669 529 742 558 699 533 b 439 429 569 518 497 486 b 656 689 439 429 540 689 l 656 689 m 193 617 b 410 357 324 617 410 357 b 193 457 353 429 281 457 b 107 529 150 457 107 486 b 193 617 107 574 136 617 l 193 617 m 436 824 b 410 486 529 733 410 486 b 325 710 419 578 388 650 b 313 822 294 740 283 790 b 436 824 343 853 394 864 l 436 824 "},"5":{"ha":776,"x_min":0,"x_max":0,"o":"m 369 -14 b 43 189 207 -14 89 72 l 186 268 b 364 153 201 221 267 153 b 544 329 451 153 544 207 b 368 508 544 442 463 508 b 210 425 279 508 228 454 l 64 489 l 129 986 l 631 986 l 631 824 l 275 824 l 244 610 b 410 663 253 624 315 663 b 728 331 572 663 728 542 b 369 -14 728 113 564 -14 "},"6":{"ha":764,"x_min":0,"x_max":0,"o":"m 381 -14 b 50 311 206 -14 50 106 b 197 660 50 464 133 574 l 433 986 l 643 986 l 364 601 b 425 608 383 606 404 608 b 714 304 581 608 714 488 b 381 -14 714 106 556 -14 m 226 300 b 382 149 226 215 290 149 b 536 300 474 149 536 215 b 382 451 536 385 474 451 b 226 300 290 451 226 385 "},"7":{"ha":719,"x_min":0,"x_max":0,"o":"m 431 824 l 42 824 l 42 986 l 678 986 l 276 0 l 92 0 "},"8":{"ha":779,"x_min":0,"x_max":0,"o":"m 390 -14 b 50 294 214 -14 50 100 b 204 554 50 422 119 514 b 108 746 153 592 108 658 b 390 1000 108 879 215 1000 b 671 746 564 1000 671 879 b 576 554 671 658 626 592 b 731 294 660 514 731 422 b 390 -14 731 100 565 -14 m 238 306 b 390 156 238 218 306 156 b 543 306 474 156 543 218 b 390 456 543 397 471 456 b 238 306 308 456 238 397 m 279 732 b 390 621 279 672 322 621 b 501 732 458 621 501 672 b 390 840 501 796 451 840 b 279 732 328 840 279 796 "},"9":{"ha":764,"x_min":0,"x_max":0,"o":"m 383 1000 b 714 675 558 1000 714 881 b 567 326 714 522 631 413 l 331 0 l 121 0 l 400 385 b 339 378 381 381 360 378 b 50 682 183 378 50 499 b 383 1000 50 881 208 1000 m 228 686 b 382 535 228 601 290 535 b 538 686 474 535 538 601 b 382 838 538 771 474 838 b 228 686 290 838 228 771 "}," ":{"ha":286,"x_min":0,"x_max":0,"o":""},"!":{"ha":831,"x_min":0,"x_max":0,"o":"m 140 274 b 128 272 136 274 132 274 l 128 136 b 140 135 131 135 136 135 b 183 204 176 135 183 161 b 140 274 183 249 176 274 l 140 274 m 351 190 l 296 190 l 296 138 l 361 138 l 361 104 l 256 104 l 256 306 l 361 306 l 361 271 l 296 271 l 296 224 l 351 224 m 138 101 b 88 104 126 101 106 101 l 88 303 b 139 308 106 306 125 308 b 224 204 201 308 224 274 b 138 101 224 133 200 101 l 138 101 m 451 306 l 478 194 l 504 306 l 560 306 b 568 104 563 257 565 169 l 528 104 b 524 249 528 151 526 201 l 496 135 l 458 135 l 431 249 l 429 249 b 426 104 428 201 426 151 l 388 104 b 397 306 389 169 393 257 l 397 306 m 669 101 b 596 204 614 101 596 133 b 669 308 596 275 614 308 b 744 204 725 308 744 275 b 669 101 744 133 725 101 l 669 101 m 669 274 b 636 204 642 274 636 250 b 669 135 636 160 642 135 b 704 204 699 135 704 160 b 669 274 704 250 699 274 m 656 689 b 742 601 728 689 742 631 b 669 529 742 558 699 533 b 439 429 569 518 497 486 b 656 689 439 429 540 689 l 656 689 m 193 617 b 410 357 324 617 410 357 b 193 457 353 429 281 457 b 107 529 150 457 107 486 b 193 617 107 574 136 617 l 193 617 m 436 824 b 410 486 529 733 410 486 b 325 710 419 578 388 650 b 313 822 294 740 283 790 b 436 824 343 853 394 864 l 436 824 "},"\"":{"ha":831,"x_min":0,"x_max":0,"o":"m 140 274 b 128 272 136 274 132 274 l 128 136 b 140 135 131 135 136 135 b 183 204 176 135 183 161 b 140 274 183 249 176 274 l 140 274 m 351 190 l 296 190 l 296 138 l 361 138 l 361 104 l 256 104 l 256 306 l 361 306 l 361 271 l 296 271 l 296 224 l 351 224 m 138 101 b 88 104 126 101 106 101 l 88 303 b 139 308 106 306 125 308 b 224 204 201 308 224 274 b 138 101 224 133 200 101 l 138 101 m 451 306 l 478 194 l 504 306 l 560 306 b 568 104 563 257 565 169 l 528 104 b 524 249 528 151 526 201 l 496 135 l 458 135 l 431 249 l 429 249 b 426 104 428 201 426 151 l 388 104 b 397 306 389 169 393 257 l 397 306 m 669 101 b 596 204 614 101 596 133 b 669 308 596 275 614 308 b 744 204 725 308 744 275 b 669 101 744 133 725 101 l 669 101 m 669 274 b 636 204 642 274 636 250 b 669 135 636 160 642 135 b 704 204 699 135 704 160 b 669 274 704 250 699 274 m 656 689 b 742 601 728 689 742 631 b 669 529 742 558 699 533 b 439 429 569 518 497 486 b 656 689 439 429 540 689 l 656 689 m 193 617 b 410 357 324 617 410 357 b 193 457 353 429 281 457 b 107 529 150 457 107 486 b 193 617 107 574 136 617 l 193 617 m 436 824 b 410 486 529 733 410 486 b 325 710 419 578 388 650 b 313 822 294 740 283 790 b 436 824 343 853 394 864 l 436 824 "},"#":{"ha":831,"x_min":0,"x_max":0,"o":"m 140 274 b 128 272 136 274 132 274 l 128 136 b 140 135 131 135 136 135 b 183 204 176 135 183 161 b 140 274 183 249 176 274 l 140 274 m 351 190 l 296 190 l 296 138 l 361 138 l 361 104 l 256 104 l 256 306 l 361 306 l 361 271 l 296 271 l 296 224 l 351 224 m 138 101 b 88 104 126 101 106 101 l 88 303 b 139 308 106 306 125 308 b 224 204 201 308 224 274 b 138 101 224 133 200 101 l 138 101 m 451 306 l 478 194 l 504 306 l 560 306 b 568 104 563 257 565 169 l 528 104 b 524 249 528 151 526 201 l 496 135 l 458 135 l 431 249 l 429 249 b 426 104 428 201 426 151 l 388 104 b 397 306 389 169 393 257 l 397 306 m 669 101 b 596 204 614 101 596 133 b 669 308 596 275 614 308 b 744 204 725 308 744 275 b 669 101 744 133 725 101 l 669 101 m 669 274 b 636 204 642 274 636 250 b 669 135 636 160 642 135 b 704 204 699 135 704 160 b 669 274 704 250 699 274 m 656 689 b 742 601 728 689 742 631 b 669 529 742 558 699 533 b 439 429 569 518 497 486 b 656 689 439 429 540 689 l 656 689 m 193 617 b 410 357 324 617 410 357 b 193 457 353 429 281 457 b 107 529 150 457 107 486 b 193 617 107 574 136 617 l 193 617 m 436 824 b 410 486 529 733 410 486 b 325 710 419 578 388 650 b 313 822 294 740 283 790 b 436 824 343 853 394 864 l 436 824 "},"$":{"ha":831,"x_min":0,"x_max":0,"o":"m 140 274 b 128 272 136 274 132 274 l 128 136 b 140 135 131 135 136 135 b 183 204 176 135 183 161 b 140 274 183 249 176 274 l 140 274 m 351 190 l 296 190 l 296 138 l 361 138 l 361 104 l 256 104 l 256 306 l 361 306 l 361 271 l 296 271 l 296 224 l 351 224 m 138 101 b 88 104 126 101 106 101 l 88 303 b 139 308 106 306 125 308 b 224 204 201 308 224 274 b 138 101 224 133 200 101 l 138 101 m 451 306 l 478 194 l 504 306 l 560 306 b 568 104 563 257 565 169 l 528 104 b 524 249 528 151 526 201 l 496 135 l 458 135 l 431 249 l 429 249 b 426 104 428 201 426 151 l 388 104 b 397 306 389 169 393 257 l 397 306 m 669 101 b 596 204 614 101 596 133 b 669 308 596 275 614 308 b 744 204 725 308 744 275 b 669 101 744 133 725 101 l 669 101 m 669 274 b 636 204 642 274 636 250 b 669 135 636 160 642 135 b 704 204 699 135 704 160 b 669 274 704 250 699 274 m 656 689 b 742 601 728 689 742 631 b 669 529 742 558 699 533 b 439 429 569 518 497 486 b 656 689 439 429 540 689 l 656 689 m 193 617 b 410 357 324 617 410 357 b 193 457 353 429 281 457 b 107 529 150 457 107 486 b 193 617 107 574 136 617 l 193 617 m 436 824 b 410 486 529 733 410 486 b 325 710 419 578 388 650 b 313 822 294 740 283 790 b 436 824 343 853 394 864 l 436 824 "},"%":{"ha":831,"x_min":0,"x_max":0,"o":"m 140 274 b 128 272 136 274 132 274 l 128 136 b 140 135 131 135 136 135 b 183 204 176 135 183 161 b 140 274 183 249 176 274 l 140 274 m 351 190 l 296 190 l 296 138 l 361 138 l 361 104 l 256 104 l 256 306 l 361 306 l 361 271 l 296 271 l 296 224 l 351 224 m 138 101 b 88 104 126 101 106 101 l 88 303 b 139 308 106 306 125 308 b 224 204 201 308 224 274 b 138 101 224 133 200 101 l 138 101 m 451 306 l 478 194 l 504 306 l 560 306 b 568 104 563 257 565 169 l 528 104 b 524 249 528 151 526 201 l 496 135 l 458 135 l 431 249 l 429 249 b 426 104 428 201 426 151 l 388 104 b 397 306 389 169 393 257 l 397 306 m 669 101 b 596 204 614 101 596 133 b 669 308 596 275 614 308 b 744 204 725 308 744 275 b 669 101 744 133 725 101 l 669 101 m 669 274 b 636 204 642 274 636 250 b 669 135 636 160 642 135 b 704 204 699 135 704 160 b 669 274 704 250 699 274 m 656 689 b 742 601 728 689 742 631 b 669 529 742 558 699 533 b 439 429 569 518 497 486 b 656 689 439 429 540 689 l 656 689 m 193 617 b 410 357 324 617 410 357 b 193 457 353 429 281 457 b 107 529 150 457 107 486 b 193 617 107 574 136 617 l 193 617 m 436 824 b 410 486 529 733 410 486 b 325 710 419 578 388 650 b 313 822 294 740 283 790 b 436 824 343 853 394 864 l 436 824 "},"&":{"ha":831,"x_min":0,"x_max":0,"o":"m 140 274 b 128 272 136 274 132 274 l 128 136 b 140 135 131 135 136 135 b 183 204 176 135 183 161 b 140 274 183 249 176 274 l 140 274 m 351 190 l 296 190 l 296 138 l 361 138 l 361 104 l 256 104 l 256 306 l 361 306 l 361 271 l 296 271 l 296 224 l 351 224 m 138 101 b 88 104 126 101 106 101 l 88 303 b 139 308 106 306 125 308 b 224 204 201 308 224 274 b 138 101 224 133 200 101 l 138 101 m 451 306 l 478 194 l 504 306 l 560 306 b 568 104 563 257 565 169 l 528 104 b 524 249 528 151 526 201 l 496 135 l 458 135 l 431 249 l 429 249 b 426 104 428 201 426 151 l 388 104 b 397 306 389 169 393 257 l 397 306 m 669 101 b 596 204 614 101 596 133 b 669 308 596 275 614 308 b 744 204 725 308 744 275 b 669 101 744 133 725 101 l 669 101 m 669 274 b 636 204 642 274 636 250 b 669 135 636 160 642 135 b 704 204 699 135 704 160 b 669 274 704 250 699 274 m 656 689 b 742 601 728 689 742 631 b 669 529 742 558 699 533 b 439 429 569 518 497 486 b 656 689 439 429 540 689 l 656 689 m 193 617 b 410 357 324 617 410 357 b 193 457 353 429 281 457 b 107 529 150 457 107 486 b 193 617 107 574 136 617 l 193 617 m 436 824 b 410 486 529 733 410 486 b 325 710 419 578 388 650 b 313 822 294 740 283 790 b 436 824 343 853 394 864 l 436 824 "},"'":{"ha":831,"x_min":0,"x_max":0,"o":"m 140 274 b 128 272 136 274 132 274 l 128 136 b 140 135 131 135 136 135 b 183 204 176 135 183 161 b 140 274 183 249 176 274 l 140 274 m 351 190 l 296 190 l 296 138 l 361 138 l 361 104 l 256 104 l 256 306 l 361 306 l 361 271 l 296 271 l 296 224 l 351 224 m 138 101 b 88 104 126 101 106 101 l 88 303 b 139 308 106 306 125 308 b 224 204 201 308 224 274 b 138 101 224 133 200 101 l 138 101 m 451 306 l 478 194 l 504 306 l 560 306 b 568 104 563 257 565 169 l 528 104 b 524 249 528 151 526 201 l 496 135 l 458 135 l 431 249 l 429 249 b 426 104 428 201 426 151 l 388 104 b 397 306 389 169 393 257 l 397 306 m 669 101 b 596 204 614 101 596 133 b 669 308 596 275 614 308 b 744 204 725 308 744 275 b 669 101 744 133 725 101 l 669 101 m 669 274 b 636 204 642 274 636 250 b 669 135 636 160 642 135 b 704 204 699 135 704 160 b 669 274 704 250 699 274 m 656 689 b 742 601 728 689 742 631 b 669 529 742 558 699 533 b 439 429 569 518 497 486 b 656 689 439 429 540 689 l 656 689 m 193 617 b 410 357 324 617 410 357 b 193 457 353 429 281 457 b 107 529 150 457 107 486 b 193 617 107 574 136 617 l 193 617 m 436 824 b 410 486 529 733 410 486 b 325 710 419 578 388 650 b 313 822 294 740 283 790 b 436 824 343 853 394 864 l 436 824 "},"(":{"ha":831,"x_min":0,"x_max":0,"o":"m 140 274 b 128 272 136 274 132 274 l 128 136 b 140 135 131 135 136 135 b 183 204 176 135 183 161 b 140 274 183 249 176 274 l 140 274 m 351 190 l 296 190 l 296 138 l 361 138 l 361 104 l 256 104 l 256 306 l 361 306 l 361 271 l 296 271 l 296 224 l 351 224 m 138 101 b 88 104 126 101 106 101 l 88 303 b 139 308 106 306 125 308 b 224 204 201 308 224 274 b 138 101 224 133 200 101 l 138 101 m 451 306 l 478 194 l 504 306 l 560 306 b 568 104 563 257 565 169 l 528 104 b 524 249 528 151 526 201 l 496 135 l 458 135 l 431 249 l 429 249 b 426 104 428 201 426 151 l 388 104 b 397 306 389 169 393 257 l 397 306 m 669 101 b 596 204 614 101 596 133 b 669 308 596 275 614 308 b 744 204 725 308 744 275 b 669 101 744 133 725 101 l 669 101 m 669 274 b 636 204 642 274 636 250 b 669 135 636 160 642 135 b 704 204 699 135 704 160 b 669 274 704 250 699 274 m 656 689 b 742 601 728 689 742 631 b 669 529 742 558 699 533 b 439 429 569 518 497 486 b 656 689 439 429 540 689 l 656 689 m 193 617 b 410 357 324 617 410 357 b 193 457 353 429 281 457 b 107 529 150 457 107 486 b 193 617 107 574 136 617 l 193 617 m 436 824 b 410 486 529 733 410 486 b 325 710 419 578 388 650 b 313 822 294 740 283 790 b 436 824 343 853 394 864 l 436 824 "},")":{"ha":831,"x_min":0,"x_max":0,"o":"m 140 274 b 128 272 136 274 132 274 l 128 136 b 140 135 131 135 136 135 b 183 204 176 135 183 161 b 140 274 183 249 176 274 l 140 274 m 351 190 l 296 190 l 296 138 l 361 138 l 361 104 l 256 104 l 256 306 l 361 306 l 361 271 l 296 271 l 296 224 l 351 224 m 138 101 b 88 104 126 101 106 101 l 88 303 b 139 308 106 306 125 308 b 224 204 201 308 224 274 b 138 101 224 133 200 101 l 138 101 m 451 306 l 478 194 l 504 306 l 560 306 b 568 104 563 257 565 169 l 528 104 b 524 249 528 151 526 201 l 496 135 l 458 135 l 431 249 l 429 249 b 426 104 428 201 426 151 l 388 104 b 397 306 389 169 393 257 l 397 306 m 669 101 b 596 204 614 101 596 133 b 669 308 596 275 614 308 b 744 204 725 308 744 275 b 669 101 744 133 725 101 l 669 101 m 669 274 b 636 204 642 274 636 250 b 669 135 636 160 642 135 b 704 204 699 135 704 160 b 669 274 704 250 699 274 m 656 689 b 742 601 728 689 742 631 b 669 529 742 558 699 533 b 439 429 569 518 497 486 b 656 689 439 429 540 689 l 656 689 m 193 617 b 410 357 324 617 410 357 b 193 457 353 429 281 457 b 107 529 150 457 107 486 b 193 617 107 574 136 617 l 193 617 m 436 824 b 410 486 529 733 410 486 b 325 710 419 578 388 650 b 313 822 294 740 283 790 b 436 824 343 853 394 864 l 436 824 "},"*":{"ha":831,"x_min":0,"x_max":0,"o":"m 140 274 b 128 272 136 274 132 274 l 128 136 b 140 135 131 135 136 135 b 183 204 176 135 183 161 b 140 274 183 249 176 274 l 140 274 m 351 190 l 296 190 l 296 138 l 361 138 l 361 104 l 256 104 l 256 306 l 361 306 l 361 271 l 296 271 l 296 224 l 351 224 m 138 101 b 88 104 126 101 106 101 l 88 303 b 139 308 106 306 125 308 b 224 204 201 308 224 274 b 138 101 224 133 200 101 l 138 101 m 451 306 l 478 194 l 504 306 l 560 306 b 568 104 563 257 565 169 l 528 104 b 524 249 528 151 526 201 l 496 135 l 458 135 l 431 249 l 429 249 b 426 104 428 201 426 151 l 388 104 b 397 306 389 169 393 257 l 397 306 m 669 101 b 596 204 614 101 596 133 b 669 308 596 275 614 308 b 744 204 725 308 744 275 b 669 101 744 133 725 101 l 669 101 m 669 274 b 636 204 642 274 636 250 b 669 135 636 160 642 135 b 704 204 699 135 704 160 b 669 274 704 250 699 274 m 656 689 b 742 601 728 689 742 631 b 669 529 742 558 699 533 b 439 429 569 518 497 486 b 656 689 439 429 540 689 l 656 689 m 193 617 b 410 357 324 617 410 357 b 193 457 353 429 281 457 b 107 529 150 457 107 486 b 193 617 107 574 136 617 l 193 617 m 436 824 b 410 486 529 733 410 486 b 325 710 419 578 388 650 b 313 822 294 740 283 790 b 436 824 343 853 394 864 l 436 824 "},"+":{"ha":831,"x_min":0,"x_max":0,"o":"m 140 274 b 128 272 136 274 132 274 l 128 136 b 140 135 131 135 136 135 b 183 204 176 135 183 161 b 140 274 183 249 176 274 l 140 274 m 351 190 l 296 190 l 296 138 l 361 138 l 361 104 l 256 104 l 256 306 l 361 306 l 361 271 l 296 271 l 296 224 l 351 224 m 138 101 b 88 104 126 101 106 101 l 88 303 b 139 308 106 306 125 308 b 224 204 201 308 224 274 b 138 101 224 133 200 101 l 138 101 m 451 306 l 478 194 l 504 306 l 560 306 b 568 104 563 257 565 169 l 528 104 b 524 249 528 151 526 201 l 496 135 l 458 135 l 431 249 l 429 249 b 426 104 428 201 426 151 l 388 104 b 397 306 389 169 393 257 l 397 306 m 669 101 b 596 204 614 101 596 133 b 669 308 596 275 614 308 b 744 204 725 308 744 275 b 669 101 744 133 725 101 l 669 101 m 669 274 b 636 204 642 274 636 250 b 669 135 636 160 642 135 b 704 204 699 135 704 160 b 669 274 704 250 699 274 m 656 689 b 742 601 728 689 742 631 b 669 529 742 558 699 533 b 439 429 569 518 497 486 b 656 689 439 429 540 689 l 656 689 m 193 617 b 410 357 324 617 410 357 b 193 457 353 429 281 457 b 107 529 150 457 107 486 b 193 617 107 574 136 617 l 193 617 m 436 824 b 410 486 529 733 410 486 b 325 710 419 578 388 650 b 313 822 294 740 283 790 b 436 824 343 853 394 864 l 436 824 "},",":{"ha":360,"x_min":0,"x_max":0,"o":"m 160 178 l 321 178 l 192 -185 l 32 -185 "},"-":{"ha":831,"x_min":0,"x_max":0,"o":"m 140 274 b 128 272 136 274 132 274 l 128 136 b 140 135 131 135 136 135 b 183 204 176 135 183 161 b 140 274 183 249 176 274 l 140 274 m 351 190 l 296 190 l 296 138 l 361 138 l 361 104 l 256 104 l 256 306 l 361 306 l 361 271 l 296 271 l 296 224 l 351 224 m 138 101 b 88 104 126 101 106 101 l 88 303 b 139 308 106 306 125 308 b 224 204 201 308 224 274 b 138 101 224 133 200 101 l 138 101 m 451 306 l 478 194 l 504 306 l 560 306 b 568 104 563 257 565 169 l 528 104 b 524 249 528 151 526 201 l 496 135 l 458 135 l 431 249 l 429 249 b 426 104 428 201 426 151 l 388 104 b 397 306 389 169 393 257 l 397 306 m 669 101 b 596 204 614 101 596 133 b 669 308 596 275 614 308 b 744 204 725 308 744 275 b 669 101 744 133 725 101 l 669 101 m 669 274 b 636 204 642 274 636 250 b 669 135 636 160 642 135 b 704 204 699 135 704 160 b 669 274 704 250 699 274 m 656 689 b 742 601 728 689 742 631 b 669 529 742 558 699 533 b 439 429 569 518 497 486 b 656 689 439 429 540 689 l 656 689 m 193 617 b 410 357 324 617 410 357 b 193 457 353 429 281 457 b 107 529 150 457 107 486 b 193 617 107 574 136 617 l 193 617 m 436 824 b 410 486 529 733 410 486 b 325 710 419 578 388 650 b 313 822 294 740 283 790 b 436 824 343 853 394 864 l 436 824 "},".":{"ha":304,"x_min":0,"x_max":0,"o":"m 153 -14 b 46 93 94 -14 46 29 b 153 200 46 157 94 200 b 260 93 210 200 260 157 b 153 -14 260 29 210 -14 "},"/":{"ha":831,"x_min":0,"x_max":0,"o":"m 140 274 b 128 272 136 274 132 274 l 128 136 b 140 135 131 135 136 135 b 183 204 176 135 183 161 b 140 274 183 249 176 274 l 140 274 m 351 190 l 296 190 l 296 138 l 361 138 l 361 104 l 256 104 l 256 306 l 361 306 l 361 271 l 296 271 l 296 224 l 351 224 m 138 101 b 88 104 126 101 106 101 l 88 303 b 139 308 106 306 125 308 b 224 204 201 308 224 274 b 138 101 224 133 200 101 l 138 101 m 451 306 l 478 194 l 504 306 l 560 306 b 568 104 563 257 565 169 l 528 104 b 524 249 528 151 526 201 l 496 135 l 458 135 l 431 249 l 429 249 b 426 104 428 201 426 151 l 388 104 b 397 306 389 169 393 257 l 397 306 m 669 101 b 596 204 614 101 596 133 b 669 308 596 275 614 308 b 744 204 725 308 744 275 b 669 101 744 133 725 101 l 669 101 m 669 274 b 636 204 642 274 636 250 b 669 135 636 160 642 135 b 704 204 699 135 704 160 b 669 274 704 250 699 274 m 656 689 b 742 601 728 689 742 631 b 669 529 742 558 699 533 b 439 429 569 518 497 486 b 656 689 439 429 540 689 l 656 689 m 193 617 b 410 357 324 617 410 357 b 193 457 353 429 281 457 b 107 529 150 457 107 486 b 193 617 107 574 136 617 l 193 617 m 436 824 b 410 486 529 733 410 486 b 325 710 419 578 388 650 b 313 822 294 740 283 790 b 436 824 343 853 394 864 l 436 824 "},":":{"ha":353,"x_min":0,"x_max":0,"o":"m 174 -14 b 67 93 115 -14 67 29 b 174 200 67 157 115 200 b 281 93 231 200 281 157 b 174 -14 281 29 231 -14 m 67 619 b 174 726 67 683 115 726 b 281 619 231 726 281 683 b 174 513 281 556 231 513 b 67 619 115 513 67 556 "},";":{"ha":382,"x_min":0,"x_max":0,"o":"m 229 513 b 122 619 171 513 122 556 b 229 726 122 683 171 726 b 336 619 286 726 336 683 b 229 513 336 556 286 513 m 160 178 l 321 178 l 192 -185 l 32 -185 "},"<":{"ha":831,"x_min":0,"x_max":0,"o":"m 140 274 b 128 272 136 274 132 274 l 128 136 b 140 135 131 135 136 135 b 183 204 176 135 183 161 b 140 274 183 249 176 274 l 140 274 m 351 190 l 296 190 l 296 138 l 361 138 l 361 104 l 256 104 l 256 306 l 361 306 l 361 271 l 296 271 l 296 224 l 351 224 m 138 101 b 88 104 126 101 106 101 l 88 303 b 139 308 106 306 125 308 b 224 204 201 308 224 274 b 138 101 224 133 200 101 l 138 101 m 451 306 l 478 194 l 504 306 l 560 306 b 568 104 563 257 565 169 l 528 104 b 524 249 528 151 526 201 l 496 135 l 458 135 l 431 249 l 429 249 b 426 104 428 201 426 151 l 388 104 b 397 306 389 169 393 257 l 397 306 m 669 101 b 596 204 614 101 596 133 b 669 308 596 275 614 308 b 744 204 725 308 744 275 b 669 101 744 133 725 101 l 669 101 m 669 274 b 636 204 642 274 636 250 b 669 135 636 160 642 135 b 704 204 699 135 704 160 b 669 274 704 250 699 274 m 656 689 b 742 601 728 689 742 631 b 669 529 742 558 699 533 b 439 429 569 518 497 486 b 656 689 439 429 540 689 l 656 689 m 193 617 b 410 357 324 617 410 357 b 193 457 353 429 281 457 b 107 529 150 457 107 486 b 193 617 107 574 136 617 l 193 617 m 436 824 b 410 486 529 733 410 486 b 325 710 419 578 388 650 b 313 822 294 740 283 790 b 436 824 343 853 394 864 l 436 824 "},"=":{"ha":831,"x_min":0,"x_max":0,"o":"m 140 274 b 128 272 136 274 132 274 l 128 136 b 140 135 131 135 136 135 b 183 204 176 135 183 161 b 140 274 183 249 176 274 l 140 274 m 351 190 l 296 190 l 296 138 l 361 138 l 361 104 l 256 104 l 256 306 l 361 306 l 361 271 l 296 271 l 296 224 l 351 224 m 138 101 b 88 104 126 101 106 101 l 88 303 b 139 308 106 306 125 308 b 224 204 201 308 224 274 b 138 101 224 133 200 101 l 138 101 m 451 306 l 478 194 l 504 306 l 560 306 b 568 104 563 257 565 169 l 528 104 b 524 249 528 151 526 201 l 496 135 l 458 135 l 431 249 l 429 249 b 426 104 428 201 426 151 l 388 104 b 397 306 389 169 393 257 l 397 306 m 669 101 b 596 204 614 101 596 133 b 669 308 596 275 614 308 b 744 204 725 308 744 275 b 669 101 744 133 725 101 l 669 101 m 669 274 b 636 204 642 274 636 250 b 669 135 636 160 642 135 b 704 204 699 135 704 160 b 669 274 704 250 699 274 m 656 689 b 742 601 728 689 742 631 b 669 529 742 558 699 533 b 439 429 569 518 497 486 b 656 689 439 429 540 689 l 656 689 m 193 617 b 410 357 324 617 410 357 b 193 457 353 429 281 457 b 107 529 150 457 107 486 b 193 617 107 574 136 617 l 193 617 m 436 824 b 410 486 529 733 410 486 b 325 710 419 578 388 650 b 313 822 294 740 283 790 b 436 824 343 853 394 864 l 436 824 "},">":{"ha":831,"x_min":0,"x_max":0,"o":"m 140 274 b 128 272 136 274 132 274 l 128 136 b 140 135 131 135 136 135 b 183 204 176 135 183 161 b 140 274 183 249 176 274 l 140 274 m 351 190 l 296 190 l 296 138 l 361 138 l 361 104 l 256 104 l 256 306 l 361 306 l 361 271 l 296 271 l 296 224 l 351 224 m 138 101 b 88 104 126 101 106 101 l 88 303 b 139 308 106 306 125 308 b 224 204 201 308 224 274 b 138 101 224 133 200 101 l 138 101 m 451 306 l 478 194 l 504 306 l 560 306 b 568 104 563 257 565 169 l 528 104 b 524 249 528 151 526 201 l 496 135 l 458 135 l 431 249 l 429 249 b 426 104 428 201 426 151 l 388 104 b 397 306 389 169 393 257 l 397 306 m 669 101 b 596 204 614 101 596 133 b 669 308 596 275 614 308 b 744 204 725 308 744 275 b 669 101 744 133 725 101 l 669 101 m 669 274 b 636 204 642 274 636 250 b 669 135 636 160 642 135 b 704 204 699 135 704 160 b 669 274 704 250 699 274 m 656 689 b 742 601 728 689 742 631 b 669 529 742 558 699 533 b 439 429 569 518 497 486 b 656 689 439 429 540 689 l 656 689 m 193 617 b 410 357 324 617 410 357 b 193 457 353 429 281 457 b 107 529 150 457 107 486 b 193 617 107 574 136 617 l 193 617 m 436 824 b 410 486 529 733 410 486 b 325 710 419 578 388 650 b 313 822 294 740 283 790 b 436 824 343 853 394 864 l 436 824 "},"?":{"ha":728,"x_min":0,"x_max":0,"o":"m 264 340 b 499 708 264 575 499 568 b 367 836 499 758 465 836 b 222 682 264 836 222 756 l 222 665 l 39 665 l 39 682 b 369 1000 39 892 168 1000 b 689 728 572 1000 689 890 b 453 339 689 494 453 501 l 453 304 l 264 304 l 264 340 m 250 93 b 357 200 250 157 299 200 b 464 93 414 200 464 157 b 357 -14 464 29 414 -14 b 250 93 299 -14 250 29 "},"@":{"ha":831,"x_min":0,"x_max":0,"o":"m 140 274 b 128 272 136 274 132 274 l 128 136 b 140 135 131 135 136 135 b 183 204 176 135 183 161 b 140 274 183 249 176 274 l 140 274 m 351 190 l 296 190 l 296 138 l 361 138 l 361 104 l 256 104 l 256 306 l 361 306 l 361 271 l 296 271 l 296 224 l 351 224 m 138 101 b 88 104 126 101 106 101 l 88 303 b 139 308 106 306 125 308 b 224 204 201 308 224 274 b 138 101 224 133 200 101 l 138 101 m 451 306 l 478 194 l 504 306 l 560 306 b 568 104 563 257 565 169 l 528 104 b 524 249 528 151 526 201 l 496 135 l 458 135 l 431 249 l 429 249 b 426 104 428 201 426 151 l 388 104 b 397 306 389 169 393 257 l 397 306 m 669 101 b 596 204 614 101 596 133 b 669 308 596 275 614 308 b 744 204 725 308 744 275 b 669 101 744 133 725 101 l 669 101 m 669 274 b 636 204 642 274 636 250 b 669 135 636 160 642 135 b 704 204 699 135 704 160 b 669 274 704 250 699 274 m 656 689 b 742 601 728 689 742 631 b 669 529 742 558 699 533 b 439 429 569 518 497 486 b 656 689 439 429 540 689 l 656 689 m 193 617 b 410 357 324 617 410 357 b 193 457 353 429 281 457 b 107 529 150 457 107 486 b 193 617 107 574 136 617 l 193 617 m 436 824 b 410 486 529 733 410 486 b 325 710 419 578 388 650 b 313 822 294 740 283 790 b 436 824 343 853 394 864 l 436 824 "},"A":{"ha":992,"x_min":0,"x_max":0,"o":"m 596 986 l 976 0 l 771 0 l 706 178 l 286 178 l 221 0 l 15 0 l 394 986 m 642 353 l 496 749 l 350 353 "},"B":{"ha":807,"x_min":0,"x_max":0,"o":"m 71 986 l 432 986 b 703 749 599 986 703 882 b 574 550 703 647 640 579 b 765 290 674 524 765 440 b 424 0 765 118 647 0 l 71 0 m 413 167 b 576 310 524 167 576 222 b 410 456 576 396 524 456 l 261 456 l 261 167 m 394 603 b 519 713 478 603 519 649 b 392 819 519 781 476 819 l 261 819 l 261 603 "},"C":{"ha":1007,"x_min":0,"x_max":0,"o":"m 565 -14 b 57 493 288 -14 57 186 b 565 1000 57 800 289 1000 b 965 786 700 1000 861 953 l 826 690 b 571 819 763 782 667 819 b 251 493 396 819 251 693 b 572 167 251 292 397 167 b 826 296 671 167 763 204 l 965 200 b 565 -14 861 33 700 -14 "},"D":{"ha":946,"x_min":0,"x_max":0,"o":"m 71 986 l 428 986 b 904 493 700 986 904 783 b 428 0 904 203 700 0 l 71 0 m 421 179 b 706 493 608 179 706 307 b 421 807 706 679 608 807 l 261 807 l 261 179 "},"E":{"ha":690,"x_min":0,"x_max":0,"o":"m 71 986 l 629 986 l 629 811 l 261 811 l 261 582 l 571 582 l 571 410 l 261 410 l 261 175 l 642 175 l 642 0 l 71 0 "},"F":{"ha":674,"x_min":0,"x_max":0,"o":"m 71 986 l 625 986 l 625 813 l 261 813 l 261 576 l 600 576 l 600 414 l 261 414 l 261 0 l 71 0 "},"G":{"ha":1076,"x_min":0,"x_max":0,"o":"m 563 -14 b 57 493 289 -14 57 186 b 568 1000 57 800 290 1000 b 967 786 700 1000 863 953 l 829 690 b 571 819 764 782 671 819 b 251 493 394 819 251 696 b 571 161 251 292 392 161 b 831 371 692 161 801 218 l 594 371 l 594 531 l 1015 531 b 563 -14 1060 189 835 -14 "},"H":{"ha":928,"x_min":0,"x_max":0,"o":"m 667 404 l 261 404 l 261 0 l 71 0 l 71 986 l 261 986 l 261 579 l 667 579 l 667 986 l 857 986 l 857 0 l 667 0 "},"I":{"ha":331,"x_min":0,"x_max":0,"o":"m 71 986 l 261 986 l 261 0 l 71 0 "},"J":{"ha":719,"x_min":0,"x_max":0,"o":"m 317 -14 b 29 135 182 -14 83 46 l 151 258 b 307 169 181 217 231 169 b 460 351 357 169 460 189 l 460 986 l 650 986 l 650 326 b 317 -14 650 74 476 -14 "},"K":{"ha":897,"x_min":0,"x_max":0,"o":"m 71 986 l 261 986 l 261 536 l 631 986 l 844 986 l 471 538 l 876 0 l 665 0 l 357 401 l 261 286 l 261 0 l 71 0 "},"L":{"ha":688,"x_min":0,"x_max":0,"o":"m 71 986 l 261 986 l 261 175 l 646 175 l 646 0 l 71 0 "},"M":{"ha":1206,"x_min":0,"x_max":0,"o":"m 71 986 l 281 986 l 603 243 l 925 986 l 1135 986 l 1135 0 l 944 0 l 944 619 l 938 619 l 672 0 l 532 0 l 268 619 l 261 619 l 261 0 l 71 0 "},"N":{"ha":982,"x_min":0,"x_max":0,"o":"m 71 986 l 261 986 l 714 313 l 721 313 l 721 986 l 911 986 l 911 0 l 721 0 l 268 674 l 261 674 l 261 0 l 71 0 "},"O":{"ha":1128,"x_min":0,"x_max":0,"o":"m 564 -14 b 57 493 289 -14 57 190 b 564 1000 57 796 289 1000 b 1072 493 839 1000 1072 796 b 564 -14 1072 190 839 -14 m 251 493 b 564 167 251 294 396 167 b 876 493 733 167 876 294 b 564 819 876 692 733 819 b 251 493 396 819 251 692 "},"P":{"ha":815,"x_min":0,"x_max":0,"o":"m 71 986 l 419 986 b 772 651 633 986 772 853 b 419 317 772 450 633 317 l 261 317 l 261 0 l 71 0 m 403 492 b 579 651 506 492 579 536 b 403 811 579 765 506 811 l 261 811 l 261 492 "},"Q":{"ha":1128,"x_min":0,"x_max":0,"o":"m 819 51 b 564 -14 744 10 657 -14 b 57 493 289 -14 57 190 b 564 1000 57 796 289 1000 b 1072 493 839 1000 1072 796 b 953 158 1072 360 1026 244 l 1076 0 l 860 0 m 251 493 b 564 167 251 294 396 167 b 704 199 614 167 663 178 l 521 435 l 738 435 l 831 315 b 876 493 860 365 876 425 b 564 819 876 692 733 819 b 251 493 396 819 251 692 "},"R":{"ha":856,"x_min":0,"x_max":0,"o":"m 408 326 l 261 326 l 261 0 l 71 0 l 71 986 l 417 986 b 765 651 626 986 765 853 b 583 358 765 510 697 407 l 814 0 l 611 0 m 397 492 b 572 651 501 492 572 536 b 397 811 572 765 501 811 l 261 811 l 261 492 "},"S":{"ha":758,"x_min":0,"x_max":0,"o":"m 383 -14 b 36 232 211 -14 71 88 l 190 303 b 381 158 218 226 281 158 b 525 285 458 158 525 199 b 382 429 525 357 482 389 l 319 453 b 74 732 185 507 74 582 b 378 1000 74 897 211 1000 b 694 792 547 1000 650 896 l 553 713 b 385 831 511 792 457 831 b 261 731 314 831 261 796 b 399 597 261 679 290 639 l 465 571 b 724 283 638 501 724 424 b 383 -14 724 83 549 -14 "},"T":{"ha":736,"x_min":0,"x_max":0,"o":"m 274 811 l 36 811 l 36 986 l 701 986 l 701 811 l 464 811 l 464 0 l 274 0 "},"U":{"ha":885,"x_min":0,"x_max":0,"o":"m 443 -14 b 71 367 236 -14 71 119 l 71 986 l 261 986 l 261 367 b 443 165 261 213 356 165 b 625 367 529 165 625 213 l 625 986 l 815 986 l 815 367 b 443 -14 815 119 650 -14 "},"V":{"ha":1006,"x_min":0,"x_max":0,"o":"m 22 986 l 228 986 l 503 238 l 778 986 l 983 986 l 603 0 l 401 0 "},"W":{"ha":1418,"x_min":0,"x_max":0,"o":"m 29 986 l 229 986 l 422 329 l 633 986 l 785 986 l 994 329 l 1189 986 l 1389 986 l 1082 0 l 932 0 l 708 664 l 486 0 l 335 0 "},"X":{"ha":935,"x_min":0,"x_max":0,"o":"m 468 333 l 244 0 l 22 0 l 357 500 l 31 986 l 253 986 l 468 665 l 682 986 l 904 986 l 579 500 l 914 0 l 692 0 "},"Y":{"ha":963,"x_min":0,"x_max":0,"o":"m 386 394 l 29 986 l 244 986 l 481 574 l 718 986 l 933 986 l 576 394 l 576 0 l 386 0 "},"Z":{"ha":819,"x_min":0,"x_max":0,"o":"m 494 811 l 43 811 l 43 986 l 790 986 l 317 175 l 776 175 l 776 0 l 22 0 "},"[":{"ha":831,"x_min":0,"x_max":0,"o":"m 140 274 b 128 272 136 274 132 274 l 128 136 b 140 135 131 135 136 135 b 183 204 176 135 183 161 b 140 274 183 249 176 274 l 140 274 m 351 190 l 296 190 l 296 138 l 361 138 l 361 104 l 256 104 l 256 306 l 361 306 l 361 271 l 296 271 l 296 224 l 351 224 m 138 101 b 88 104 126 101 106 101 l 88 303 b 139 308 106 306 125 308 b 224 204 201 308 224 274 b 138 101 224 133 200 101 l 138 101 m 451 306 l 478 194 l 504 306 l 560 306 b 568 104 563 257 565 169 l 528 104 b 524 249 528 151 526 201 l 496 135 l 458 135 l 431 249 l 429 249 b 426 104 428 201 426 151 l 388 104 b 397 306 389 169 393 257 l 397 306 m 669 101 b 596 204 614 101 596 133 b 669 308 596 275 614 308 b 744 204 725 308 744 275 b 669 101 744 133 725 101 l 669 101 m 669 274 b 636 204 642 274 636 250 b 669 135 636 160 642 135 b 704 204 699 135 704 160 b 669 274 704 250 699 274 m 656 689 b 742 601 728 689 742 631 b 669 529 742 558 699 533 b 439 429 569 518 497 486 b 656 689 439 429 540 689 l 656 689 m 193 617 b 410 357 324 617 410 357 b 193 457 353 429 281 457 b 107 529 150 457 107 486 b 193 617 107 574 136 617 l 193 617 m 436 824 b 410 486 529 733 410 486 b 325 710 419 578 388 650 b 313 822 294 740 283 790 b 436 824 343 853 394 864 l 436 824 "},"\\":{"ha":831,"x_min":0,"x_max":0,"o":"m 140 274 b 128 272 136 274 132 274 l 128 136 b 140 135 131 135 136 135 b 183 204 176 135 183 161 b 140 274 183 249 176 274 l 140 274 m 351 190 l 296 190 l 296 138 l 361 138 l 361 104 l 256 104 l 256 306 l 361 306 l 361 271 l 296 271 l 296 224 l 351 224 m 138 101 b 88 104 126 101 106 101 l 88 303 b 139 308 106 306 125 308 b 224 204 201 308 224 274 b 138 101 224 133 200 101 l 138 101 m 451 306 l 478 194 l 504 306 l 560 306 b 568 104 563 257 565 169 l 528 104 b 524 249 528 151 526 201 l 496 135 l 458 135 l 431 249 l 429 249 b 426 104 428 201 426 151 l 388 104 b 397 306 389 169 393 257 l 397 306 m 669 101 b 596 204 614 101 596 133 b 669 308 596 275 614 308 b 744 204 725 308 744 275 b 669 101 744 133 725 101 l 669 101 m 669 274 b 636 204 642 274 636 250 b 669 135 636 160 642 135 b 704 204 699 135 704 160 b 669 274 704 250 699 274 m 656 689 b 742 601 728 689 742 631 b 669 529 742 558 699 533 b 439 429 569 518 497 486 b 656 689 439 429 540 689 l 656 689 m 193 617 b 410 357 324 617 410 357 b 193 457 353 429 281 457 b 107 529 150 457 107 486 b 193 617 107 574 136 617 l 193 617 m 436 824 b 410 486 529 733 410 486 b 325 710 419 578 388 650 b 313 822 294 740 283 790 b 436 824 343 853 394 864 l 436 824 "},"]":{"ha":831,"x_min":0,"x_max":0,"o":"m 140 274 b 128 272 136 274 132 274 l 128 136 b 140 135 131 135 136 135 b 183 204 176 135 183 161 b 140 274 183 249 176 274 l 140 274 m 351 190 l 296 190 l 296 138 l 361 138 l 361 104 l 256 104 l 256 306 l 361 306 l 361 271 l 296 271 l 296 224 l 351 224 m 138 101 b 88 104 126 101 106 101 l 88 303 b 139 308 106 306 125 308 b 224 204 201 308 224 274 b 138 101 224 133 200 101 l 138 101 m 451 306 l 478 194 l 504 306 l 560 306 b 568 104 563 257 565 169 l 528 104 b 524 249 528 151 526 201 l 496 135 l 458 135 l 431 249 l 429 249 b 426 104 428 201 426 151 l 388 104 b 397 306 389 169 393 257 l 397 306 m 669 101 b 596 204 614 101 596 133 b 669 308 596 275 614 308 b 744 204 725 308 744 275 b 669 101 744 133 725 101 l 669 101 m 669 274 b 636 204 642 274 636 250 b 669 135 636 160 642 135 b 704 204 699 135 704 160 b 669 274 704 250 699 274 m 656 689 b 742 601 728 689 742 631 b 669 529 742 558 699 533 b 439 429 569 518 497 486 b 656 689 439 429 540 689 l 656 689 m 193 617 b 410 357 324 617 410 357 b 193 457 353 429 281 457 b 107 529 150 457 107 486 b 193 617 107 574 136 617 l 193 617 m 436 824 b 410 486 529 733 410 486 b 325 710 419 578 388 650 b 313 822 294 740 283 790 b 436 824 343 853 394 864 l 436 824 "},"^":{"ha":831,"x_min":0,"x_max":0,"o":"m 140 274 b 128 272 136 274 132 274 l 128 136 b 140 135 131 135 136 135 b 183 204 176 135 183 161 b 140 274 183 249 176 274 l 140 274 m 351 190 l 296 190 l 296 138 l 361 138 l 361 104 l 256 104 l 256 306 l 361 306 l 361 271 l 296 271 l 296 224 l 351 224 m 138 101 b 88 104 126 101 106 101 l 88 303 b 139 308 106 306 125 308 b 224 204 201 308 224 274 b 138 101 224 133 200 101 l 138 101 m 451 306 l 478 194 l 504 306 l 560 306 b 568 104 563 257 565 169 l 528 104 b 524 249 528 151 526 201 l 496 135 l 458 135 l 431 249 l 429 249 b 426 104 428 201 426 151 l 388 104 b 397 306 389 169 393 257 l 397 306 m 669 101 b 596 204 614 101 596 133 b 669 308 596 275 614 308 b 744 204 725 308 744 275 b 669 101 744 133 725 101 l 669 101 m 669 274 b 636 204 642 274 636 250 b 669 135 636 160 642 135 b 704 204 699 135 704 160 b 669 274 704 250 699 274 m 656 689 b 742 601 728 689 742 631 b 669 529 742 558 699 533 b 439 429 569 518 497 486 b 656 689 439 429 540 689 l 656 689 m 193 617 b 410 357 324 617 410 357 b 193 457 353 429 281 457 b 107 529 150 457 107 486 b 193 617 107 574 136 617 l 193 617 m 436 824 b 410 486 529 733 410 486 b 325 710 419 578 388 650 b 313 822 294 740 283 790 b 436 824 343 853 394 864 l 436 824 "},"_":{"ha":831,"x_min":0,"x_max":0,"o":"m 140 274 b 128 272 136 274 132 274 l 128 136 b 140 135 131 135 136 135 b 183 204 176 135 183 161 b 140 274 183 249 176 274 l 140 274 m 351 190 l 296 190 l 296 138 l 361 138 l 361 104 l 256 104 l 256 306 l 361 306 l 361 271 l 296 271 l 296 224 l 351 224 m 138 101 b 88 104 126 101 106 101 l 88 303 b 139 308 106 306 125 308 b 224 204 201 308 224 274 b 138 101 224 133 200 101 l 138 101 m 451 306 l 478 194 l 504 306 l 560 306 b 568 104 563 257 565 169 l 528 104 b 524 249 528 151 526 201 l 496 135 l 458 135 l 431 249 l 429 249 b 426 104 428 201 426 151 l 388 104 b 397 306 389 169 393 257 l 397 306 m 669 101 b 596 204 614 101 596 133 b 669 308 596 275 614 308 b 744 204 725 308 744 275 b 669 101 744 133 725 101 l 669 101 m 669 274 b 636 204 642 274 636 250 b 669 135 636 160 642 135 b 704 204 699 135 704 160 b 669 274 704 250 699 274 m 656 689 b 742 601 728 689 742 631 b 669 529 742 558 699 533 b 439 429 569 518 497 486 b 656 689 439 429 540 689 l 656 689 m 193 617 b 410 357 324 617 410 357 b 193 457 353 429 281 457 b 107 529 150 457 107 486 b 193 617 107 574 136 617 l 193 617 m 436 824 b 410 486 529 733 410 486 b 325 710 419 578 388 650 b 313 822 294 740 283 790 b 436 824 343 853 394 864 l 436 824 "},"`":{"ha":831,"x_min":0,"x_max":0,"o":"m 140 274 b 128 272 136 274 132 274 l 128 136 b 140 135 131 135 136 135 b 183 204 176 135 183 161 b 140 274 183 249 176 274 l 140 274 m 351 190 l 296 190 l 296 138 l 361 138 l 361 104 l 256 104 l 256 306 l 361 306 l 361 271 l 296 271 l 296 224 l 351 224 m 138 101 b 88 104 126 101 106 101 l 88 303 b 139 308 106 306 125 308 b 224 204 201 308 224 274 b 138 101 224 133 200 101 l 138 101 m 451 306 l 478 194 l 504 306 l 560 306 b 568 104 563 257 565 169 l 528 104 b 524 249 528 151 526 201 l 496 135 l 458 135 l 431 249 l 429 249 b 426 104 428 201 426 151 l 388 104 b 397 306 389 169 393 257 l 397 306 m 669 101 b 596 204 614 101 596 133 b 669 308 596 275 614 308 b 744 204 725 308 744 275 b 669 101 744 133 725 101 l 669 101 m 669 274 b 636 204 642 274 636 250 b 669 135 636 160 642 135 b 704 204 699 135 704 160 b 669 274 704 250 699 274 m 656 689 b 742 601 728 689 742 631 b 669 529 742 558 699 533 b 439 429 569 518 497 486 b 656 689 439 429 540 689 l 656 689 m 193 617 b 410 357 324 617 410 357 b 193 457 353 429 281 457 b 107 529 150 457 107 486 b 193 617 107 574 136 617 l 193 617 m 436 824 b 410 486 529 733 410 486 b 325 710 419 578 388 650 b 313 822 294 740 283 790 b 436 824 343 853 394 864 l 436 824 "},"a":{"ha":875,"x_min":0,"x_max":0,"o":"m 383 -14 b 36 361 215 -14 36 111 b 383 736 36 611 215 736 b 614 625 513 736 596 665 l 618 625 l 618 722 l 804 722 l 804 0 l 618 0 l 618 97 l 614 97 b 383 -14 596 57 513 -14 m 219 361 b 421 153 219 226 317 153 b 622 361 525 153 622 225 b 421 569 622 497 525 569 b 219 361 317 569 219 496 "},"b":{"ha":875,"x_min":0,"x_max":0,"o":"m 257 986 l 257 625 l 261 625 b 492 736 279 665 363 736 b 839 361 660 736 839 611 b 492 -14 839 111 660 -14 b 261 97 363 -14 279 57 l 257 97 l 257 0 l 71 0 l 71 986 m 253 361 b 454 153 253 225 350 153 b 656 361 558 153 656 226 b 454 569 656 496 558 569 b 253 361 350 569 253 497 "},"c":{"ha":764,"x_min":0,"x_max":0,"o":"m 417 -14 b 36 361 226 -14 36 117 b 417 736 36 606 226 736 b 728 558 544 736 658 676 l 592 471 b 418 568 554 528 493 568 b 219 361 314 568 219 490 b 418 154 219 232 314 154 b 592 251 493 154 554 194 l 728 164 b 417 -14 658 47 544 -14 "},"d":{"ha":875,"x_min":0,"x_max":0,"o":"m 618 0 l 618 97 l 614 97 b 383 -14 596 57 513 -14 b 36 361 215 -14 36 111 b 383 736 36 611 215 736 b 614 625 513 736 596 665 l 618 625 l 618 986 l 804 986 l 804 0 m 219 361 b 421 153 219 226 317 153 b 622 361 525 153 622 225 b 421 569 622 497 525 569 b 219 361 317 569 219 496 "},"e":{"ha":793,"x_min":0,"x_max":0,"o":"m 413 -14 b 36 361 214 -14 36 121 b 401 736 36 604 217 736 b 753 289 585 736 793 607 l 213 289 b 433 139 239 190 325 139 b 619 204 504 139 567 158 l 704 114 b 413 -14 644 39 540 -14 m 588 425 b 403 579 576 528 490 579 b 210 425 317 579 233 529 "},"f":{"ha":536,"x_min":0,"x_max":0,"o":"m 114 769 b 357 1017 114 982 261 1017 b 486 989 394 1017 446 1013 l 486 843 b 406 858 451 860 418 858 b 300 749 335 858 300 819 l 300 722 l 486 722 l 486 574 l 300 574 l 300 0 l 114 0 l 114 574 l 22 574 l 22 722 l 114 722 l 114 769 "},"g":{"ha":875,"x_min":0,"x_max":0,"o":"m 424 -289 b 214 -244 340 -289 257 -272 l 214 -93 b 390 -133 247 -115 319 -133 b 618 42 529 -133 618 -68 l 618 97 l 610 97 b 383 -14 592 57 511 -14 b 36 361 217 -14 36 111 b 383 736 36 611 217 736 b 610 625 511 736 592 665 l 618 625 l 618 722 l 804 722 l 804 54 b 424 -289 804 -222 588 -289 m 219 361 b 421 153 219 226 317 153 b 622 361 526 153 622 225 b 421 569 622 497 526 569 b 219 361 317 569 219 496 "},"h":{"ha":822,"x_min":0,"x_max":0,"o":"m 71 986 l 257 986 l 257 624 b 478 736 297 688 369 736 b 751 425 626 736 751 644 l 751 0 l 565 0 l 565 394 b 411 569 565 500 508 569 b 257 394 315 569 257 500 l 257 0 l 71 0 "},"i":{"ha":328,"x_min":0,"x_max":0,"o":"m 71 722 l 257 722 l 257 0 l 71 0 m 71 986 l 257 986 l 257 822 l 71 822 "},"j":{"ha":331,"x_min":0,"x_max":0,"o":"m -125 -96 l -85 -96 b 74 65 17 -96 74 -68 l 74 722 l 261 722 l 261 47 b -75 -268 261 -178 153 -268 l -125 -268 m 74 986 l 261 986 l 261 822 l 74 822 "},"k":{"ha":803,"x_min":0,"x_max":0,"o":"m 71 986 l 257 986 l 257 415 l 528 722 l 750 722 l 463 404 l 782 0 l 574 0 l 347 278 l 257 178 l 257 0 l 71 0 "},"l":{"ha":328,"x_min":0,"x_max":0,"o":"m 71 986 l 257 986 l 257 0 l 71 0 "},"m":{"ha":1247,"x_min":0,"x_max":0,"o":"m 531 411 b 397 569 531 514 476 569 b 257 411 315 569 257 514 l 257 0 l 71 0 l 71 722 l 257 722 l 257 629 b 464 736 296 690 363 736 b 675 615 553 736 631 699 b 914 736 717 682 796 736 b 1178 419 1067 736 1178 640 l 1178 0 l 990 0 l 990 411 b 857 569 990 514 938 569 b 717 411 775 569 717 514 l 717 0 l 531 0 "},"n":{"ha":822,"x_min":0,"x_max":0,"o":"m 71 722 l 257 722 l 257 624 b 478 736 297 688 369 736 b 751 425 626 736 751 644 l 751 0 l 565 0 l 565 394 b 411 569 565 500 508 569 b 257 394 315 569 257 500 l 257 0 l 71 0 "},"o":{"ha":833,"x_min":0,"x_max":0,"o":"m 417 -14 b 36 361 228 -14 36 117 b 417 736 36 606 228 736 b 797 361 604 736 797 606 b 417 -14 797 117 604 -14 m 219 361 b 417 154 219 232 313 154 b 613 361 521 154 613 232 b 417 568 613 490 521 568 b 219 361 313 568 219 490 "},"p":{"ha":875,"x_min":0,"x_max":0,"o":"m 71 722 l 257 722 l 257 625 l 261 625 b 492 736 279 665 363 736 b 839 361 660 736 839 611 b 492 -14 839 111 660 -14 b 261 97 363 -14 279 57 l 257 97 l 257 -264 l 71 -264 m 253 361 b 454 153 253 225 350 153 b 656 361 558 153 656 226 b 454 569 656 496 558 569 b 253 361 350 569 253 497 "},"q":{"ha":875,"x_min":0,"x_max":0,"o":"m 618 -264 l 618 97 l 614 97 b 383 -14 596 57 513 -14 b 36 361 215 -14 36 111 b 383 736 36 611 215 736 b 614 625 513 736 596 665 l 618 625 l 618 722 l 804 722 l 804 -264 m 219 361 b 421 153 219 226 317 153 b 622 361 525 153 622 225 b 421 569 622 497 525 569 b 219 361 317 569 219 496 "},"r":{"ha":567,"x_min":0,"x_max":0,"o":"m 71 722 l 257 722 l 257 535 b 483 736 282 646 353 736 b 532 731 500 736 515 735 l 532 553 b 485 557 515 556 501 557 b 257 315 344 557 257 460 l 257 0 l 71 0 "},"s":{"ha":610,"x_min":0,"x_max":0,"o":"m 300 -14 b 29 189 157 -14 51 56 l 178 229 b 297 133 192 182 226 133 b 390 208 344 133 390 157 b 311 289 390 243 368 268 l 222 322 b 53 529 103 365 53 442 b 303 736 53 658 167 736 b 553 551 433 736 529 663 l 407 514 b 311 590 388 572 350 590 b 233 528 263 590 233 563 b 308 451 233 497 251 471 l 389 421 b 575 208 478 389 575 336 b 300 -14 575 64 451 -14 "},"t":{"ha":518,"x_min":0,"x_max":0,"o":"m 350 -8 b 139 200 228 -8 139 51 l 139 574 l 36 574 l 36 722 l 139 722 l 139 907 l 326 907 l 326 722 l 475 722 l 475 574 l 326 574 l 326 231 b 408 157 326 193 347 157 b 476 168 425 157 450 160 l 476 25 b 350 -8 449 0 396 -8 "},"u":{"ha":822,"x_min":0,"x_max":0,"o":"m 751 0 l 565 0 l 565 99 b 344 -14 525 35 453 -14 b 71 297 196 -14 71 78 l 71 722 l 257 722 l 257 328 b 411 153 257 222 314 153 b 565 328 507 153 565 222 l 565 722 l 751 722 "},"v":{"ha":825,"x_min":0,"x_max":0,"o":"m 22 722 l 213 722 l 413 221 l 611 722 l 803 722 l 499 0 l 325 0 "},"w":{"ha":1275,"x_min":0,"x_max":0,"o":"m 638 489 l 458 0 l 288 0 l 22 722 l 207 722 l 375 222 l 551 722 l 722 722 l 899 222 l 1068 722 l 1253 722 l 988 0 l 817 0 "},"x":{"ha":796,"x_min":0,"x_max":0,"o":"m 290 369 l 39 722 l 250 722 l 397 506 l 544 722 l 757 722 l 506 369 l 781 0 l 567 0 l 397 235 l 229 0 l 15 0 "},"y":{"ha":825,"x_min":0,"x_max":0,"o":"m 322 7 l 22 722 l 213 722 l 413 221 l 611 722 l 803 722 l 499 0 l 386 -264 l 204 -264 "},"z":{"ha":729,"x_min":0,"x_max":0,"o":"m 408 560 l 63 560 l 63 722 l 707 722 l 321 164 l 679 164 l 679 0 l 22 0 "},"{":{"ha":831,"x_min":0,"x_max":0,"o":"m 140 274 b 128 272 136 274 132 274 l 128 136 b 140 135 131 135 136 135 b 183 204 176 135 183 161 b 140 274 183 249 176 274 l 140 274 m 351 190 l 296 190 l 296 138 l 361 138 l 361 104 l 256 104 l 256 306 l 361 306 l 361 271 l 296 271 l 296 224 l 351 224 m 138 101 b 88 104 126 101 106 101 l 88 303 b 139 308 106 306 125 308 b 224 204 201 308 224 274 b 138 101 224 133 200 101 l 138 101 m 451 306 l 478 194 l 504 306 l 560 306 b 568 104 563 257 565 169 l 528 104 b 524 249 528 151 526 201 l 496 135 l 458 135 l 431 249 l 429 249 b 426 104 428 201 426 151 l 388 104 b 397 306 389 169 393 257 l 397 306 m 669 101 b 596 204 614 101 596 133 b 669 308 596 275 614 308 b 744 204 725 308 744 275 b 669 101 744 133 725 101 l 669 101 m 669 274 b 636 204 642 274 636 250 b 669 135 636 160 642 135 b 704 204 699 135 704 160 b 669 274 704 250 699 274 m 656 689 b 742 601 728 689 742 631 b 669 529 742 558 699 533 b 439 429 569 518 497 486 b 656 689 439 429 540 689 l 656 689 m 193 617 b 410 357 324 617 410 357 b 193 457 353 429 281 457 b 107 529 150 457 107 486 b 193 617 107 574 136 617 l 193 617 m 436 824 b 410 486 529 733 410 486 b 325 710 419 578 388 650 b 313 822 294 740 283 790 b 436 824 343 853 394 864 l 436 824 "},"|":{"ha":831,"x_min":0,"x_max":0,"o":"m 140 274 b 128 272 136 274 132 274 l 128 136 b 140 135 131 135 136 135 b 183 204 176 135 183 161 b 140 274 183 249 176 274 l 140 274 m 351 190 l 296 190 l 296 138 l 361 138 l 361 104 l 256 104 l 256 306 l 361 306 l 361 271 l 296 271 l 296 224 l 351 224 m 138 101 b 88 104 126 101 106 101 l 88 303 b 139 308 106 306 125 308 b 224 204 201 308 224 274 b 138 101 224 133 200 101 l 138 101 m 451 306 l 478 194 l 504 306 l 560 306 b 568 104 563 257 565 169 l 528 104 b 524 249 528 151 526 201 l 496 135 l 458 135 l 431 249 l 429 249 b 426 104 428 201 426 151 l 388 104 b 397 306 389 169 393 257 l 397 306 m 669 101 b 596 204 614 101 596 133 b 669 308 596 275 614 308 b 744 204 725 308 744 275 b 669 101 744 133 725 101 l 669 101 m 669 274 b 636 204 642 274 636 250 b 669 135 636 160 642 135 b 704 204 699 135 704 160 b 669 274 704 250 699 274 m 656 689 b 742 601 728 689 742 631 b 669 529 742 558 699 533 b 439 429 569 518 497 486 b 656 689 439 429 540 689 l 656 689 m 193 617 b 410 357 324 617 410 357 b 193 457 353 429 281 457 b 107 529 150 457 107 486 b 193 617 107 574 136 617 l 193 617 m 436 824 b 410 486 529 733 410 486 b 325 710 419 578 388 650 b 313 822 294 740 283 790 b 436 824 343 853 394 864 l 436 824 "},"}":{"ha":831,"x_min":0,"x_max":0,"o":"m 140 274 b 128 272 136 274 132 274 l 128 136 b 140 135 131 135 136 135 b 183 204 176 135 183 161 b 140 274 183 249 176 274 l 140 274 m 351 190 l 296 190 l 296 138 l 361 138 l 361 104 l 256 104 l 256 306 l 361 306 l 361 271 l 296 271 l 296 224 l 351 224 m 138 101 b 88 104 126 101 106 101 l 88 303 b 139 308 106 306 125 308 b 224 204 201 308 224 274 b 138 101 224 133 200 101 l 138 101 m 451 306 l 478 194 l 504 306 l 560 306 b 568 104 563 257 565 169 l 528 104 b 524 249 528 151 526 201 l 496 135 l 458 135 l 431 249 l 429 249 b 426 104 428 201 426 151 l 388 104 b 397 306 389 169 393 257 l 397 306 m 669 101 b 596 204 614 101 596 133 b 669 308 596 275 614 308 b 744 204 725 308 744 275 b 669 101 744 133 725 101 l 669 101 m 669 274 b 636 204 642 274 636 250 b 669 135 636 160 642 135 b 704 204 699 135 704 160 b 669 274 704 250 699 274 m 656 689 b 742 601 728 689 742 631 b 669 529 742 558 699 533 b 439 429 569 518 497 486 b 656 689 439 429 540 689 l 656 689 m 193 617 b 410 357 324 617 410 357 b 193 457 353 429 281 457 b 107 529 150 457 107 486 b 193 617 107 574 136 617 l 193 617 m 436 824 b 410 486 529 733 410 486 b 325 710 419 578 388 650 b 313 822 294 740 283 790 b 436 824 343 853 394 864 l 436 824 "},"~":{"ha":831,"x_min":0,"x_max":0,"o":"m 140 274 b 128 272 136 274 132 274 l 128 136 b 140 135 131 135 136 135 b 183 204 176 135 183 161 b 140 274 183 249 176 274 l 140 274 m 351 190 l 296 190 l 296 138 l 361 138 l 361 104 l 256 104 l 256 306 l 361 306 l 361 271 l 296 271 l 296 224 l 351 224 m 138 101 b 88 104 126 101 106 101 l 88 303 b 139 308 106 306 125 308 b 224 204 201 308 224 274 b 138 101 224 133 200 101 l 138 101 m 451 306 l 478 194 l 504 306 l 560 306 b 568 104 563 257 565 169 l 528 104 b 524 249 528 151 526 201 l 496 135 l 458 135 l 431 249 l 429 249 b 426 104 428 201 426 151 l 388 104 b 397 306 389 169 393 257 l 397 306 m 669 101 b 596 204 614 101 596 133 b 669 308 596 275 614 308 b 744 204 725 308 744 275 b 669 101 744 133 725 101 l 669 101 m 669 274 b 636 204 642 274 636 250 b 669 135 636 160 642 135 b 704 204 699 135 704 160 b 669 274 704 250 699 274 m 656 689 b 742 601 728 689 742 631 b 669 529 742 558 699 533 b 439 429 569 518 497 486 b 656 689 439 429 540 689 l 656 689 m 193 617 b 410 357 324 617 410 357 b 193 457 353 429 281 457 b 107 529 150 457 107 486 b 193 617 107 574 136 617 l 193 617 m 436 824 b 410 486 529 733 410 486 b 325 710 419 578 388 650 b 313 822 294 740 283 790 b 436 824 343 853 394 864 l 436 824 "}}}
